<svg xmlns="http://www.w3.org/2000/svg" width="1920" height="600" viewBox="0 0 1920 600">
  <defs>
    <linearGradient id="bg-grad" x1="0%" y1="0%" x2="100%" y2="100%">
      <stop offset="0%" stop-color="#0a0a0f"/>
      <stop offset="50%" stop-color="#111116"/>
      <stop offset="100%" stop-color="#0a0a0f"/>
    </linearGradient>
    <linearGradient id="accent1" x1="0%" y1="0%" x2="100%" y2="100%">
      <stop offset="0%" stop-color="rgba(202,254,97,0.08)" />
      <stop offset="50%" stop-color="rgba(202,254,97,0.03)" />
      <stop offset="100%" stop-color="rgba(202,254,97,0)" />
    </linearGradient>
    <filter id="blur-lg"><feGaussianBlur stdDeviation="80" /></filter>
    <filter id="blur-sm"><feGaussianBlur stdDeviation="3" /></filter>
  </defs>
  <rect width="1920" height="600" fill="url(#bg-grad)" />
  <ellipse cx="200" cy="200" rx="500" ry="350" fill="rgba(202,254,97,0.03)" filter="url(#blur-lg)" />
  <ellipse cx="1720" cy="250" rx="450" ry="300" fill="rgba(202,254,97,0.025)" filter="url(#blur-lg)" />
  <ellipse cx="960" cy="300" rx="600" ry="250" fill="url(#accent1)" />
  <g opacity="0.12">
    <line x1="0" y1="120" x2="1920" y2="80" stroke="rgba(202,254,97,0.3)" stroke-width="0.5" />
    <line x1="0" y1="220" x2="1920" y2="180" stroke="rgba(202,254,97,0.2)" stroke-width="0.5" />
    <line x1="0" y1="320" x2="1920" y2="280" stroke="rgba(202,254,97,0.12)" stroke-width="0.5" />
    <line x1="0" y1="420" x2="1920" y2="380" stroke="rgba(202,254,97,0.08)" stroke-width="0.5" />
    <line x1="0" y1="520" x2="1920" y2="480" stroke="rgba(202,254,97,0.05)" stroke-width="0.5" />
  </g>
  <g opacity="0.06">
    <line x1="240" y1="0" x2="240" y2="600" stroke="rgba(202,254,97,0.15)" stroke-width="0.5" />
    <line x1="480" y1="0" x2="480" y2="600" stroke="rgba(202,254,97,0.1)" stroke-width="0.5" />
    <line x1="960" y1="0" x2="960" y2="600" stroke="rgba(202,254,97,0.12)" stroke-width="0.5" />
    <line x1="1440" y1="0" x2="1440" y2="600" stroke="rgba(202,254,97,0.1)" stroke-width="0.5" />
    <line x1="1680" y1="0" x2="1680" y2="600" stroke="rgba(202,254,97,0.08)" stroke-width="0.5" />
  </g>
  <g opacity="0.25">
    <circle cx="300" cy="150" r="2" fill="rgba(202,254,97,0.4)" />
    <circle cx="700" cy="80" r="1.2" fill="rgba(202,254,97,0.3)" />
    <circle cx="1200" cy="120" r="1.5" fill="rgba(202,254,97,0.35)" />
    <circle cx="1600" cy="90" r="1" fill="rgba(202,254,97,0.25)" />
    <circle cx="450" cy="250" r="1" fill="rgba(202,254,97,0.2)" />
    <circle cx="850" cy="180" r="0.8" fill="rgba(255,255,255,0.15)" />
    <circle cx="1300" cy="200" r="1.8" fill="rgba(202,254,97,0.3)" />
    <circle cx="1700" cy="300" r="1.2" fill="rgba(202,254,97,0.2)" />
    <circle cx="550" cy="400" r="0.8" fill="rgba(202,254,97,0.15)" />
    <circle cx="1050" cy="450" r="1.5" fill="rgba(202,254,97,0.25)" />
    <circle cx="200" cy="500" r="1" fill="rgba(255,255,255,0.1)" />
    <circle cx="1500" cy="480" r="0.7" fill="rgba(202,254,97,0.15)" />
    <circle cx="680" cy="520" r="1.3" fill="rgba(202,254,97,0.2)" />
    <circle cx="1350" cy="550" r="0.9" fill="rgba(202,254,97,0.15)" />
  </g>
  <path d="M0,600 Q240,520 480,550 Q720,580 960,530 Q1200,480 1440,540 Q1680,600 1920,560 L1920,600 L0,600Z" fill="rgba(202,254,97,0.015)" filter="url(#blur-sm)" />
</svg>